<?xml version="1.0" encoding="UTF-8"?>
<svg width="512px" height="512px" viewBox="0 0 512 512" version="1.1" xmlns="http://www.w3.org/2000/svg" xmlns:xlink="http://www.w3.org/1999/xlink">
    <!-- Generator: Sketch 41.1 (35376) - http://www.bohemiancoding.com/sketch -->
    <title>Shape</title>
    <desc>Created with Sketch.</desc>
    <defs></defs>
    <g id="Page-1" stroke="none" stroke-width="1" fill="none" fill-rule="evenodd">
        <path d="M256,512 C114.615,512 0,397.385 0,256 C0,114.615 114.615,0 256,0 C397.385,0 512,114.615 512,256 C512,397.385 397.385,512 256,512 Z M108.159,344.493 L191.319,265.831 L108.159,197.002 L108.159,344.493 Z M403.839,147.838 L108.159,147.838 L108.159,177.337 L255.999,305.162 L403.839,177.337 L403.839,147.838 Z M403.839,197.002 L320.679,265.831 L403.839,344.493 L403.839,197.002 Z M311.439,275.663 L255.999,324.827 L200.559,275.663 L108.159,364.158 L403.839,364.158 L311.439,275.663 Z" id="Shape" fill="#777777"></path>
    </g>
</svg>